<svg width="170" height="523" viewBox="0 0 170 523" fill="none" xmlns="http://www.w3.org/2000/svg">
<path d="M10.0624 522.143C9.78924 522.102 9.60054 521.848 9.64092 521.575L10.2991 517.123C10.3395 516.85 10.5937 516.662 10.8668 516.702C11.14 516.742 11.3287 516.997 11.2883 517.27L10.7033 521.227L14.6603 521.812C14.9335 521.852 15.1222 522.106 15.0818 522.379C15.0414 522.653 14.7872 522.841 14.514 522.801L10.0624 522.143ZM10.1355 521.648L9.8375 521.247C70.6466 476.102 143.08 395.917 162.867 302.085C172.757 255.184 169.496 204.868 145.051 153.79C120.603 102.705 74.9499 50.8247 1.20935e-06 0.831917L0.277454 0.415949L0.5549 1.10427e-05C75.6113 50.0638 121.408 102.07 145.953 153.358C170.501 204.652 173.777 255.194 163.845 302.291C143.988 396.457 71.3437 476.83 10.4336 522.05L10.1355 521.648Z" fill="black"/>
</svg>
