<svg width="131" height="94" viewBox="0 0 131 94" fill="none" xmlns="http://www.w3.org/2000/svg">
<path d="M1.52588e-05 93.9058V90.135H0.662601V93.3024H2.64497V93.9058H1.52588e-05Z" fill="black"/>
<path d="M3.36769 93.9058V90.135H4.03028V93.9058H3.36769Z" fill="black"/>
<path d="M5.03969 93.9058V90.135H7.84625V90.7383H5.70227V91.7672H7.60384V92.3705H5.70227V93.9058H5.03969Z" fill="black"/>
<path d="M8.57482 93.9058V90.135H11.3706V90.7275H9.23741V91.7079H11.1282V92.3059H9.23741V93.3132H11.3975V93.9058H8.57482Z" fill="black"/>
<path d="M13.5034 93.9596C12.9216 93.9596 12.3829 93.7657 11.9304 93.3563L12.3291 92.8823C12.6954 93.2001 13.0509 93.3725 13.5196 93.3725C13.929 93.3725 14.1875 93.1785 14.1875 92.8984V92.8876C14.1875 92.6237 14.0367 92.4675 13.3364 92.3113C12.5338 92.1227 12.0813 91.8749 12.0813 91.1854V91.1746C12.0813 90.5282 12.6199 90.0811 13.3687 90.0811C13.9236 90.0811 14.3491 90.2481 14.737 90.5551L14.3815 91.0561C14.0367 90.8029 13.7027 90.6683 13.3579 90.6683C12.9701 90.6683 12.7438 90.8622 12.7438 91.1154V91.1261C12.7438 91.417 12.9162 91.5463 13.6434 91.7187C14.4353 91.9234 14.8501 92.1927 14.8501 92.823V92.8338C14.8501 93.5448 14.2953 93.9596 13.5034 93.9596Z" fill="black"/>
<path d="M16.4768 93.9058V90.7491H15.2755V90.135H18.3407V90.7491H17.1394V93.9058H16.4768Z" fill="black"/>
<path d="M20.1374 93.9058V92.419L18.6398 90.135H19.4263L20.4767 91.7995L21.5433 90.135H22.3029L20.8053 92.4028V93.9058H20.1374Z" fill="black"/>
<path d="M22.8837 93.9058V90.135H23.5463V93.3024H25.5287V93.9058H22.8837Z" fill="black"/>
<path d="M26.2137 93.9058V90.135H29.0095V90.7275H26.8763V91.7079H28.7671V92.3059H26.8763V93.3132H29.0364V93.9058H26.2137Z" fill="black"/>
<path d="M37.5743 93.9058L39.2335 90.108H39.8476L41.5067 93.9058H40.8064L40.424 92.9954H38.6409L38.253 93.9058H37.5743ZM38.8833 92.4082H40.1815L39.5297 90.8999L38.8833 92.4082Z" fill="black"/>
<path d="M42.1533 93.9058V90.135H43.6401C44.5236 90.135 45.073 90.6359 45.073 91.3955V91.4063C45.073 92.2466 44.3997 92.6937 43.5647 92.6937H42.8159V93.9058H42.1533ZM42.8159 92.0958H43.5863C44.0872 92.0958 44.3997 91.8157 44.3997 91.4224V91.4116C44.3997 90.9645 44.0818 90.7383 43.5863 90.7383H42.8159V92.0958Z" fill="black"/>
<path d="M45.7516 93.9058V90.135H47.2384C48.1218 90.135 48.6713 90.6359 48.6713 91.3955V91.4063C48.6713 92.2466 47.9979 92.6937 47.163 92.6937H46.4142V93.9058H45.7516ZM46.4142 92.0958H47.1845C47.6855 92.0958 47.9979 91.8157 47.9979 91.4224V91.4116C47.9979 90.9645 47.6801 90.7383 47.1845 90.7383H46.4142V92.0958Z" fill="black"/>
<path d="M49.3499 93.9058V90.135H52.1457V90.7275H50.0125V91.7079H51.9032V92.3059H50.0125V93.3132H52.1726V93.9058H49.3499Z" fill="black"/>
<path d="M52.6354 93.9058L54.2946 90.108H54.9087L56.5679 93.9058H55.8676L55.4851 92.9954H53.702L53.3142 93.9058H52.6354ZM53.9445 92.4082H55.2427L54.5909 90.8999L53.9445 92.4082Z" fill="black"/>
<path d="M57.2145 93.9058V90.135H58.8952C59.3692 90.135 59.7409 90.275 59.9833 90.512C60.1827 90.7221 60.2958 90.9969 60.2958 91.3255V91.3362C60.2958 91.9557 59.9241 92.3274 59.4016 92.4782L60.4197 93.9058H59.6332L58.7067 92.5914H57.8771V93.9058H57.2145ZM57.8771 92.0042H58.8467C59.3208 92.0042 59.6224 91.7618 59.6224 91.3739V91.3632C59.6224 90.9538 59.3369 90.7383 58.8413 90.7383H57.8771V92.0042Z" fill="black"/>
<path d="M60.7841 93.9058L62.4433 90.108H63.0574L64.7166 93.9058H64.0163L63.6338 92.9954H61.8507L61.4629 93.9058H60.7841ZM62.0932 92.4082H63.3914L62.7396 90.8999L62.0932 92.4082Z" fill="black"/>
<path d="M65.3632 93.9058V90.135H65.9773L67.9974 92.7422V90.135H68.6492V93.9058H68.0943L66.015 91.2231V93.9058H65.3632Z" fill="black"/>
<path d="M71.3698 93.9704C70.2708 93.9704 69.452 93.1139 69.452 92.0311V92.0204C69.452 90.9484 70.2547 90.0703 71.3913 90.0703C72.0916 90.0703 72.5118 90.3127 72.8727 90.6575L72.4471 91.1477C72.1401 90.8676 71.8223 90.6844 71.3859 90.6844C70.6749 90.6844 70.1469 91.2716 70.1469 92.0096V92.0204C70.1469 92.7584 70.6695 93.3563 71.3913 93.3563C71.8492 93.3563 72.1509 93.1732 72.4741 92.8715L72.8996 93.3024C72.5172 93.7172 72.0701 93.9704 71.3698 93.9704Z" fill="black"/>
<path d="M73.6013 93.9058V90.135H76.3971V90.7275H74.2639V91.7079H76.1547V92.3059H74.2639V93.3132H76.424V93.9058H73.6013Z" fill="black"/>
<path d="M85.2851 93.9058V90.135H86.9766C87.413 90.135 87.7416 90.2481 87.9624 90.4689C88.1294 90.6359 88.2156 90.846 88.2156 91.0938V91.1046C88.2156 91.5625 87.957 91.7995 87.6769 91.9449C88.124 92.1012 88.4257 92.3436 88.4257 92.8607V92.8715C88.4257 93.5448 87.8708 93.9058 87.0305 93.9058H85.2851ZM87.553 91.2123V91.2016C87.553 90.8999 87.3214 90.7221 86.8904 90.7221H85.937V91.7241H86.842C87.2729 91.7241 87.553 91.5571 87.553 91.2123ZM87.7631 92.8015V92.7907C87.7631 92.4675 87.5099 92.2843 86.9874 92.2843H85.937V93.3186H87.0359C87.4884 93.3186 87.7631 93.1462 87.7631 92.8015Z" fill="black"/>
<path d="M88.8285 93.9058L90.4876 90.108H91.1018L92.7609 93.9058H92.0606L91.6781 92.9954H89.8951L89.5072 93.9058H88.8285ZM90.1375 92.4082H91.4357L90.7839 90.8999L90.1375 92.4082Z" fill="black"/>
<path d="M93.4075 93.9058V90.135H94.0701V93.3024H96.0525V93.9058H93.4075Z" fill="black"/>
<path d="M96.4143 93.9058L98.0735 90.108H98.6876L100.347 93.9058H99.6464L99.264 92.9954H97.4809L97.093 93.9058H96.4143ZM97.7233 92.4082H99.0215L98.3697 90.8999L97.7233 92.4082Z" fill="black"/>
<path d="M100.993 93.9058V90.135H101.607L103.628 92.7422V90.135H104.279V93.9058H103.724L101.645 91.2231V93.9058H100.993Z" fill="black"/>
<path d="M107 93.9704C105.901 93.9704 105.082 93.1139 105.082 92.0311V92.0204C105.082 90.9484 105.885 90.0703 107.021 90.0703C107.722 90.0703 108.142 90.3127 108.503 90.6575L108.077 91.1477C107.77 90.8676 107.452 90.6844 107.016 90.6844C106.305 90.6844 105.777 91.2716 105.777 92.0096V92.0204C105.777 92.7584 106.3 93.3563 107.021 93.3563C107.479 93.3563 107.781 93.1732 108.104 92.8715L108.53 93.3024C108.147 93.7172 107.7 93.9704 107 93.9704Z" fill="black"/>
<path d="M109.231 93.9058V90.135H112.027V90.7275H109.894V91.7079H111.785V92.3059H109.894V93.3132H112.054V93.9058H109.231Z" fill="black"/>
<path d="M112.84 93.9058V90.135H114.246C115.431 90.135 116.25 90.9484 116.25 92.0096V92.0204C116.25 93.0816 115.431 93.9058 114.246 93.9058H112.84ZM114.246 90.7383H113.503V93.3024H114.246C115.038 93.3024 115.555 92.7691 115.555 92.0311V92.0204C115.555 91.2824 115.038 90.7383 114.246 90.7383Z" fill="black"/>
<path d="M118.669 93.9058V90.135H120.075C121.26 90.135 122.079 90.9484 122.079 92.0096V92.0204C122.079 93.0816 121.26 93.9058 120.075 93.9058H118.669ZM120.075 90.7383H119.332V93.3024H120.075C120.867 93.3024 121.384 92.7691 121.384 92.0311V92.0204C121.384 91.2824 120.867 90.7383 120.075 90.7383Z" fill="black"/>
<path d="M122.921 93.9058V90.135H123.583V93.9058H122.921Z" fill="black"/>
<path d="M124.592 93.9058V90.135H127.388V90.7275H125.255V91.7079H127.146V92.3059H125.255V93.3132H127.415V93.9058H124.592Z" fill="black"/>
<path d="M129.117 93.9058V90.7491H127.916V90.135H130.981V90.7491H129.78V93.9058H129.117Z" fill="black"/>
<path d="M33.9608 92.1957C33.9608 92.6833 33.5656 93.0785 33.078 93.0785C32.5904 93.0785 32.1951 92.6833 32.1951 92.1957C32.1951 91.7081 32.5904 91.3128 33.078 91.3128C33.5656 91.3128 33.9608 91.7081 33.9608 92.1957Z" fill="black"/>
<path d="M81.0662 92.1957C81.0662 92.6833 80.671 93.0785 80.1834 93.0785C79.6958 93.0785 79.3005 92.6833 79.3005 92.1957C79.3005 91.7081 79.6958 91.3128 80.1834 91.3128C80.671 91.3128 81.0662 91.7081 81.0662 92.1957Z" fill="black"/>
<path d="M125.843 3.5119V0.950451H124.868V0.452148H127.355V0.950451H126.38V3.5119H125.843Z" fill="black"/>
<path d="M127.912 3.5119V0.452148H128.485L129.416 1.89897L130.347 0.452148H130.92V3.5119H130.382V1.31762L129.416 2.76008H129.399L128.441 1.32636V3.5119H127.912Z" fill="black"/>
<path d="M7.62939e-06 85.7781V84.5553H5.50252V1.4062H7.62939e-06V0.183418H20.237V1.4062H14.6122V84.5553H18.5863C21.4802 84.5553 23.722 83.8624 25.3116 82.4766C26.9012 81.05 28.0017 79.0936 28.6131 76.6072C29.2245 74.1209 29.5302 71.227 29.5302 67.9255H30.753V85.7781H7.62939e-06Z" fill="black"/>
<path d="M41.9729 85.7781V84.5553H47.6589L60.8038 0H62.8825L76.2108 84.5553H81.6522V85.7781H60.6815V84.5553H66.184L57.5634 24.7002H58.1748L49.0651 84.5553H54.0173V85.7781H41.9729ZM51.2049 65.2965V64.0126H64.9612V65.2965H51.2049Z" fill="black"/>
<path d="M90.7848 85.7781V84.5553H96.5319V1.4062H90.7848V0.183418H110.9C112.938 0.183418 114.935 0.550253 116.891 1.28392C118.888 1.97683 120.682 3.09772 122.271 4.64657C123.902 6.15467 125.206 8.1315 126.184 10.5771C127.163 13.0226 127.652 15.9777 127.652 19.4422C127.652 22.866 127.224 25.8414 126.368 28.3685C125.512 30.8956 124.411 33.0151 123.066 34.727C121.721 36.3981 120.254 37.7024 118.664 38.6399C117.115 39.5773 115.607 40.1684 114.14 40.4129C115.648 40.4537 117.278 40.8816 119.031 41.6968C120.824 42.512 122.536 43.7756 124.167 45.4875C125.797 47.1993 127.122 49.4207 128.141 52.1516C129.201 54.8417 129.73 58.1025 129.73 61.9339C129.73 67.1511 128.976 71.5327 127.468 75.0788C126.001 78.6248 124.024 81.2946 121.538 83.088C119.051 84.8814 116.239 85.7781 113.101 85.7781H90.7848ZM105.58 84.5553H111.205C112.673 84.5553 114.079 83.7605 115.424 82.1709C116.769 80.5405 117.869 78.0746 118.725 74.7731C119.622 71.4308 120.07 67.253 120.07 62.2396C120.07 57.3077 119.581 53.2929 118.603 50.1952C117.625 47.0567 116.382 44.7538 114.874 43.2864C113.366 41.8191 111.776 41.0854 110.105 41.0854H105.58V84.5553ZM105.58 39.8627H110.105C111.694 39.8627 113.101 39.1698 114.323 37.7839C115.587 36.3574 116.565 34.1563 117.258 31.1809C117.992 28.1647 118.359 24.2518 118.359 19.4422C118.359 14.9179 117.951 11.3515 117.136 8.74288C116.321 6.09353 115.261 4.2186 113.957 3.11809C112.693 1.97683 111.348 1.4062 109.921 1.4062H105.58V39.8627Z" fill="black"/>
<circle cx="86.3208" cy="84.2821" r="1.62588" fill="black"/>
<circle cx="129.374" cy="84.2821" r="1.62588" fill="black"/>
<circle cx="36.2441" cy="84.2821" r="1.62588" fill="black"/>
</svg>
