<svg width="102" height="79" viewBox="0 0 102 79" fill="none" xmlns="http://www.w3.org/2000/svg">
<path d="M0 78.4156V77.2977H4.98401V1.2855H0V0.167675H18.3301V1.2855H13.2353V77.2977H16.8349C19.4561 77.2977 21.4866 76.6643 22.9264 75.3974C24.3663 74.0933 25.3631 72.3048 25.9168 70.0319C26.4706 67.7589 26.7475 65.1134 26.7475 62.0953H27.8551V78.4156H0Z" fill="black"/>
<path d="M30.2649 78.4156V77.2977H35.415L47.3213 0H49.2041L61.2765 77.2977H66.2051V78.4156H47.2105V77.2977H52.1945L44.3862 22.5801H44.94L36.6887 77.2977H41.1743V78.4156H30.2649ZM38.6269 59.692V58.5182H51.087V59.692H38.6269Z" fill="black"/>
<path d="M66.7243 78.4156V77.2977H71.9298V1.2855H66.7243V0.167675H84.9436C86.7895 0.167675 88.5985 0.503023 90.3706 1.17372C92.1797 1.80716 93.8041 2.83183 95.2439 4.24775C96.7206 5.6264 97.902 7.43355 98.7881 9.66921C99.6741 11.9049 100.117 14.6063 100.117 17.7735C100.117 20.9034 99.7295 23.6234 98.9542 25.9336C98.1789 28.2438 97.1821 30.1813 95.9638 31.7463C94.7455 33.274 93.4164 34.4663 91.9766 35.3233C90.5737 36.1803 89.2077 36.7206 87.8786 36.9442C89.2446 36.9814 90.7214 37.3727 92.3089 38.1179C93.9333 38.8631 95.4839 40.0182 96.9606 41.5832C98.4374 43.1481 99.6372 45.1788 100.56 47.6753C101.52 50.1345 102 53.1154 102 56.6179C102 61.3873 101.317 65.3929 99.951 68.6346C98.6219 71.8763 96.8314 74.3169 94.5794 75.9563C92.3273 77.5958 89.7799 78.4156 86.9372 78.4156H66.7243ZM80.1257 77.2977H85.2205C86.5496 77.2977 87.8233 76.5712 89.0416 75.118C90.2599 73.6275 91.2567 71.3733 92.032 68.3551C92.8442 65.2997 93.2503 61.4805 93.2503 56.8974C93.2503 52.3888 92.8073 48.7186 91.9212 45.8868C91.0352 43.0177 89.9092 40.9125 88.5432 39.5711C87.1772 38.2297 85.7374 37.559 84.2237 37.559H80.1257V77.2977ZM80.1257 36.4412H84.2237C85.6635 36.4412 86.9372 35.8077 88.0448 34.5409C89.1893 33.2367 90.0753 31.2246 90.7029 28.5046C91.3674 25.7473 91.6997 22.1702 91.6997 17.7735C91.6997 13.6375 91.3305 10.3772 90.5922 7.99246C89.8538 5.57051 88.8939 3.85651 87.7125 2.85046C86.568 1.80715 85.3497 1.2855 84.0576 1.2855H80.1257V36.4412Z" fill="black"/>
</svg>
