<svg width="20" height="20" viewBox="0 0 20 20" fill="none" xmlns="http://www.w3.org/2000/svg">
<path d="M12.0303 15.6904C11.8719 15.6904 11.7135 15.632 11.5884 15.507C11.3467 15.2652 11.3467 14.865 11.5884 14.6233L16.2072 10.0046L11.5884 5.38585C11.3467 5.14408 11.3467 4.7439 11.5884 4.50213C11.8302 4.26036 12.2304 4.26036 12.4722 4.50213L17.5327 9.5627C17.7745 9.80447 17.7745 10.2047 17.5327 10.4464L12.4722 15.507C12.3471 15.632 12.1887 15.6904 12.0303 15.6904Z" fill="#A90C50"/>
<path d="M16.9492 10.6295H2.91796C2.57614 10.6295 2.29268 10.346 2.29268 10.0042C2.29268 9.66236 2.57614 9.37891 2.91796 9.37891H16.9492C17.291 9.37891 17.5744 9.66236 17.5744 10.0042C17.5744 10.346 17.291 10.6295 16.9492 10.6295Z" fill="#A90C50"/>
</svg>
