<svg width="79" height="79" viewBox="0 0 79 79" fill="none" xmlns="http://www.w3.org/2000/svg">
<rect width="78.641" height="78.641" rx="39.3205" fill="black"/>
<path d="M48.5113 47.1392C48.237 47.2976 47.9044 47.3549 47.5629 47.2634C46.9027 47.0865 46.5027 46.3936 46.6796 45.7334L50.0592 33.1204L37.4463 29.7408C36.786 29.5639 36.386 28.8711 36.5629 28.2108C36.7398 27.5506 37.4327 27.1506 38.0929 27.3275L51.9125 31.0304C52.5728 31.2073 52.9728 31.9002 52.7959 32.5604L49.0929 46.38C49.0014 46.7215 48.7855 46.9809 48.5113 47.1392Z" fill="white"/>
<path d="M51.9688 33.4614L27.6768 47.4864C27.085 47.828 26.3109 47.6206 25.9692 47.0288C25.6276 46.437 25.835 45.663 26.4268 45.3213L50.7188 31.2963C51.3106 30.9546 52.0846 31.162 52.4263 31.7538C52.768 32.3456 52.5606 33.1197 51.9688 33.4614Z" fill="white"/>
</svg>
