<svg width="56" height="40" viewBox="0 0 56 40" fill="none" xmlns="http://www.w3.org/2000/svg">
<path d="M39.4667 31.3667C39.15 31.3667 38.8333 31.25 38.5833 31C38.1 30.5167 38.1 29.7167 38.5833 29.2333L47.8167 20L38.5833 10.7667C38.1 10.2833 38.1 9.48335 38.5833 9.00001C39.0667 8.51668 39.8667 8.51668 40.35 9.00001L50.4667 19.1167C50.95 19.6 50.95 20.4 50.4667 20.8833L40.35 31C40.1 31.25 39.7833 31.3667 39.4667 31.3667Z" fill="black"/>
<path d="M49.3 21.25L1.25 21.25C0.566667 21.25 0 20.6833 0 20C0 19.3167 0.566667 18.75 1.25 18.75L49.3 18.75C49.9833 18.75 50.55 19.3167 50.55 20C50.55 20.6833 49.9833 21.25 49.3 21.25Z" fill="black"/>
</svg>
